<svg xmlns="http://www.w3.org/2000/svg" viewBox="0 0 800 600"><g fill="none" stroke-width="2"><path stroke="#6f5f4b" d="M461.88 399.86q36.91-22.6 51.17-64.36c3.2-9.39-8.26-11.55-10.24-5.19q-4.02 12.92-10.97 24.37a.64.63 39 0 1-1.01.1q-12.63-13.56-22.15-29.49" vector-effect="non-scaling-stroke"/><path stroke="#7d6b54" d="M468.68 325.29q-21.31-36.72-22.01-79.63-.05-2.84-.64-4.1c-1.74-3.67-7.72-3.82-9.63-.56q-.94 1.6-1.03 5.56-1.32 55.4-35.97 98.77" vector-effect="non-scaling-stroke"/><path stroke="#7d6b54" d="M399.4 345.33q-34.34-43.67-35.85-98.56-.12-4.28-1.12-5.84c-2.43-3.79-9.99-2.74-10.08 2.88q-.92 61.27-40.66 107.06a.56.56 0 0 1-.92-.1c-16.06-29.58-17.8-64.74-3.17-95.38 29.15-61.05 104.39-78.4 158.47-38.65" vector-effect="non-scaling-stroke"/><path stroke="#6f5f4b" d="M466.07 216.74q26.17 20.49 36.47 52.05c1.99 6.09 10.26 5.67 11.07.27q.3-2.03-1.04-5.95-12.37-36.14-43.82-58.52" vector-effect="non-scaling-stroke"/><path stroke="#7d6b54" d="M468.75 204.59c-36.36-24.89-83.65-27.89-122.31-6.4-38.74 21.53-62.61 63.51-60.09 108 4.94 87.2 99.96 137.87 175.53 93.67" vector-effect="non-scaling-stroke"/><path stroke="#b89466" d="M468.75 204.59q-1.11 4.59-.69 9.38a1.37 1.24-38.7 0 1-.1.63q-.52 1.26-1.75 1.6a.11.1 45.9 0 0 0 .2q.14.05.29.1.51.13 0 .26-.15.03-.43-.02" vector-effect="non-scaling-stroke"/><path stroke="#c5a06f" d="m399.4 345.33-.28 14.75q-.01.75.67.43l.69-.32q.77-.36.21.29-.98 1.12-.63 1.52" vector-effect="non-scaling-stroke"/><path stroke="#7d6b54" d="M400.06 362q-18.36 19.51-40.87 32-1.54.85.07 1.55 41.69 18.06 83.89 1.06.69-.28.04-.63-19.7-10.64-36.17-25.8-.36-.33-.03-.69l6.96-7.81a.54.53 42.4 0 1 .76-.03q18.79 17.57 41.75 28.09" vector-effect="non-scaling-stroke"/><path stroke="#b89466" d="m456.46 389.74-.18 1.08q-.09.55.41.3.89-.44.96-1.14a1.6 1.6 0 0 1 3.19-.02c.27 2.38-.66 8.15 1.04 9.9" vector-effect="non-scaling-stroke"/><path stroke="#6f5f4b" d="M466.5 343.03q8.08 11.32 17.7 21.38.39.4.05.83-11.33 14.62-27.79 24.5" vector-effect="non-scaling-stroke"/><path stroke="#b89466" d="M468.68 325.29q-.85 7.71-.92 15.23c-.01.97-.65 1.84-1.26 2.51" vector-effect="non-scaling-stroke"/><path stroke="#7d6b54" d="M466.5 343.03q-17.29-24.82-25.32-54.05-.18-.66-.36 0-11.5 41.57-40.76 73.02M317.83 361.73c7.36 10.16 16.75 19.13 27.42 25.97q.73.47 1.5.08 25.19-12.83 44.77-33.25a.62.61 47.3 0 0 .03-.81q-23.37-28.72-33.31-64.46-.32-1.14-.63 0-11.22 40.72-39.73 71.76-.31.34-.05.71" vector-effect="non-scaling-stroke"/></g><path fill="#343639" d="M0 0h800v600H0V0Zm461.88 399.86q36.91-22.6 51.17-64.36c3.2-9.39-8.26-11.55-10.24-5.19q-4.02 12.92-10.97 24.37a.64.63 39 0 1-1.01.1q-12.63-13.56-22.15-29.49-21.31-36.72-22.01-79.63-.05-2.84-.64-4.1c-1.74-3.67-7.72-3.82-9.63-.56q-.94 1.6-1.03 5.56-1.32 55.4-35.97 98.77-34.34-43.67-35.85-98.56-.12-4.28-1.12-5.84c-2.43-3.79-9.99-2.74-10.08 2.88q-.92 61.27-40.66 107.06a.56.56 0 0 1-.92-.1c-16.06-29.58-17.8-64.74-3.17-95.38 29.15-61.05 104.39-78.4 158.47-38.65q26.17 20.49 36.47 52.05c1.99 6.09 10.26 5.67 11.07.27q.3-2.03-1.04-5.95-12.37-36.14-43.82-58.52c-36.36-24.89-83.65-27.89-122.31-6.4-38.74 21.53-62.61 63.51-60.09 108 4.94 87.2 99.96 137.87 175.53 93.67Z"/><path fill="#c5a06f" d="M468.75 204.59q-1.11 4.59-.69 9.38a1.37 1.24-38.7 0 1-.1.63q-.52 1.26-1.75 1.6a.11.1 45.9 0 0 0 .2q.14.05.29.1.51.13 0 .26-.15.03-.43-.02c-54.08-39.75-129.32-22.4-158.47 38.65-14.63 30.64-12.89 65.8 3.17 95.38a.56.56 0 0 0 .92.1q39.74-45.79 40.66-107.06c.09-5.62 7.65-6.67 10.08-2.88q1 1.56 1.12 5.84 1.51 54.89 35.85 98.56l-.28 14.75q-.01.75.67.43l.69-.32q.77-.36.21.29-.98 1.12-.63 1.52-18.36 19.51-40.87 32-1.54.85.07 1.55 41.69 18.06 83.89 1.06.69-.28.04-.63-19.7-10.64-36.17-25.8-.36-.33-.03-.69l6.96-7.81a.54.53 42.4 0 1 .76-.03q18.79 17.57 41.75 28.09l-.18 1.08q-.09.55.41.3.89-.44.96-1.14a1.6 1.6 0 0 1 3.19-.02c.27 2.38-.66 8.15 1.04 9.9-75.57 44.2-170.59-6.47-175.53-93.67-2.52-44.49 21.35-86.47 60.09-108 38.66-21.49 85.95-18.49 122.31 6.4ZM317.83 361.73c7.36 10.16 16.75 19.13 27.42 25.97q.73.47 1.5.08 25.19-12.83 44.77-33.25a.62.61 47.3 0 0 .03-.81q-23.37-28.72-33.31-64.46-.32-1.14-.63 0-11.22 40.72-39.73 71.76-.31.34-.05.71Z"/><path fill="#aa885c" d="M468.75 204.59q31.45 22.38 43.82 58.52 1.34 3.92 1.04 5.95c-.81 5.4-9.08 5.82-11.07-.27q-10.3-31.56-36.47-52.05.28.05.43.02.51-.13 0-.26-.15-.05-.29-.1a.11.1 45.9 0 1 0-.2q1.23-.34 1.75-1.6a1.37 1.24-38.7 0 0 .1-.63q-.42-4.79.69-9.38Z"/><path fill="#c5a06f" d="M468.68 325.29q-.85 7.71-.92 15.23c-.01.97-.65 1.84-1.26 2.51q-17.29-24.82-25.32-54.05-.18-.66-.36 0-11.5 41.57-40.76 73.02-.35-.4.63-1.52.56-.65-.21-.29l-.69.32q-.68.32-.67-.43l.28-14.75q34.65-43.37 35.97-98.77.09-3.96 1.03-5.56c1.91-3.26 7.89-3.11 9.63.56q.59 1.26.64 4.1.7 42.91 22.01 79.63Z"/><path fill="#343639" d="M466.5 343.03q8.08 11.32 17.7 21.38.39.4.05.83-11.33 14.62-27.79 24.5-22.96-10.52-41.75-28.09a.54.53 42.4 0 0-.76.03l-6.96 7.81q-.33.36.03.69 16.47 15.16 36.17 25.8.65.35-.04.63-42.2 17-83.89-1.06-1.61-.7-.07-1.55 22.51-12.49 40.87-32 29.26-31.45 40.76-73.02.18-.66.36 0 8.03 29.23 25.32 54.05Z"/><path fill="#343639" d="M345.25 387.7c-10.67-6.84-20.06-15.81-27.42-25.97q-.26-.37.05-.71 28.51-31.04 39.73-71.76.31-1.14.63 0 9.94 35.74 33.31 64.46a.62.61 47.3 0 1-.03.81q-19.58 20.42-44.77 33.25-.77.39-1.5-.08Z"/><path fill="#aa885c" d="M468.68 325.29q9.52 15.93 22.15 29.49a.64.63 39 0 0 1.01-.1q6.95-11.45 10.97-24.37c1.98-6.36 13.44-4.2 10.24 5.19q-14.26 41.76-51.17 64.36c-1.7-1.75-.77-7.52-1.04-9.9a1.6 1.6 0 0 0-3.19.02q-.07.7-.96 1.14-.5.25-.41-.3l.18-1.08q16.46-9.88 27.79-24.5.34-.43-.05-.83-9.62-10.06-17.7-21.38c.61-.67 1.25-1.54 1.26-2.51q.07-7.52.92-15.23Z"/></svg>